<?xml version="1.0" encoding="utf-8"?>
<!-- Generator: Adobe Illustrator 25.2.3, SVG Export Plug-In . SVG Version: 6.00 Build 0)  -->
<svg version="1.1" id="圖層_1" xmlns="http://www.w3.org/2000/svg" xmlns:xlink="http://www.w3.org/1999/xlink" x="0px" y="0px"
	 viewBox="0 0 104 23" style="enable-background:new 0 0 104 23;" xml:space="preserve">
<style type="text/css">
	.st0{fill:url(#SVGID_1_);}
	.st1{fill:url(#SVGID_2_);}
	.st2{fill:url(#SVGID_3_);}
	.st3{fill:url(#SVGID_4_);}
	.st4{fill:url(#SVGID_5_);}
	.st5{fill:url(#SVGID_6_);}
	.st6{fill:url(#SVGID_7_);}
	.st7{fill:url(#SVGID_8_);}
</style>
<g>
	<g>
		<linearGradient id="SVGID_1_" gradientUnits="userSpaceOnUse" x1="36.8498" y1="3.3841" x2="36.8498" y2="35.4475">
			<stop  offset="0" style="stop-color:#A67A22"/>
			<stop  offset="0.2488" style="stop-color:#F8E69C"/>
			<stop  offset="0.7562" style="stop-color:#A67A22"/>
			<stop  offset="0.9179" style="stop-color:#D2B869"/>
			<stop  offset="1" style="stop-color:#E5D388"/>
		</linearGradient>
		<path class="st0" d="M34.8,6h3.7c0.2-0.4,0.3-0.8,0.5-1.3l2.3,0.7c-0.1,0.2-0.2,0.4-0.3,0.6h4.2v1.8h-6v0.5h4.7v8.1H42v0.6h3.2
			v1.9H42v0.6c0,1.1-0.2,1.8-0.6,2.1c-0.4,0.4-1.1,0.6-2.1,0.6c-0.5,0-0.9-0.1-1.3-0.2l-0.4-2.2c0.6,0.2,1.1,0.3,1.7,0.3
			c0.3,0,0.5-0.3,0.5-1v-0.2h-5.8c0.3,0.4,0.7,0.9,0.9,1.3l-2,1.2c-0.3-0.7-0.8-1.4-1.4-2l0.8-0.5h-3.9v-1.9h11.4v-0.6H29.8V8.3H34
			c0-0.2,0-0.3,0-0.5h-5.6V6h4c-0.1-0.2-0.2-0.4-0.3-0.6l2.1-0.7C34.4,5.1,34.6,5.5,34.8,6z M32.9,12.5l-0.8-0.9
			c0.7-0.4,1.1-0.9,1.5-1.5c0,0,0,0,0-0.1h-1.8v2.5H32.9z M41.9,14.6v-0.5H31.8v0.5H41.9z M41.9,12.5V12h-2.7
			c-1.3,0-1.9-0.5-1.9-1.5V10h-1.7c-0.1,0.4-0.2,0.7-0.3,1c-0.3,0.6-0.7,1.1-1.2,1.5H41.9z M37.3,7.8h-1.4c0,0.2,0,0.4,0,0.5h1.5
			V7.8z M39.2,10.1c0,0.3,0.2,0.4,0.5,0.4h2.2V10L39.2,10.1L39.2,10.1z"/>
		<linearGradient id="SVGID_2_" gradientUnits="userSpaceOnUse" x1="56.3915" y1="3.3841" x2="56.3915" y2="35.4475">
			<stop  offset="0" style="stop-color:#A67A22"/>
			<stop  offset="0.2488" style="stop-color:#F8E69C"/>
			<stop  offset="0.7562" style="stop-color:#A67A22"/>
			<stop  offset="0.9179" style="stop-color:#D2B869"/>
			<stop  offset="1" style="stop-color:#E5D388"/>
		</linearGradient>
		<path class="st1" d="M52.6,13.1v7.1c0,1.2-0.5,1.8-1.5,1.8h-0.8l-0.4-1.6c0.3,0.1,0.6,0.2,0.8,0.2c0.2,0,0.4-0.2,0.4-0.5v-1H50
			c-0.1,0.4-0.1,0.8-0.2,1.2c-0.2,0.6-0.4,1.3-0.7,2l-1.4-0.8c0.4-0.9,0.6-1.6,0.8-2.2c0.1-0.8,0.2-1.5,0.2-2.3v-3.7h0.7H52.6z
			 M57.5,4.9v0.7h7.3v1.6H51v0.1c0,0.3,0.2,0.4,0.6,0.4H64V9H51c-1.3,0-2-0.5-2-1.4V7.2h-1V5.6h7.3V4.9H57.5z M63.4,9.5v3.3h-14V9.5
			H63.4z M51.1,15.5v-0.8h-1v0.8H51.1z M51.1,17.6v-0.7h-1v0.7H51.1z M61.4,11.3v-0.4h-9.9v0.4H61.4z M58.5,13.2v3.3l0.6-0.6
			c0.2,0.1,0.3,0.2,0.4,0.3c0-0.1,0-0.2,0-0.3v-1.2H59v-1.6h4.3v6.9c0,0.2,0.1,0.4,0.2,0.4c0.1,0,0.1-0.1,0.2-0.2
			c0-0.1,0.1-0.5,0.1-1.3l1.4,0.5c-0.1,1.1-0.3,1.8-0.5,2.1c-0.2,0.2-0.6,0.3-1.1,0.3c-1.2,0-1.8-0.4-1.8-1.1v-2.7l-1,1.2
			c0,0,0,0,0,0c-0.1,0.3-0.2,0.7-0.2,1c-0.2,0.8-0.6,1.5-1.1,2l-1.2-1.1c0.4-0.5,0.7-1.1,1-1.9c0.1-0.3,0.2-0.8,0.3-1.3
			c-0.3-0.3-0.6-0.5-0.9-0.7V20h-1.2c0.1,0.2,0.2,0.3,0.3,0.5c0.2,0.2,0.3,0.4,0.4,0.5l-1.3,1c-0.2-0.2-0.3-0.4-0.4-0.6
			c-0.2-0.3-0.3-0.6-0.5-1l0.7-0.4H55l0.5,0.3C55,21,54.5,21.6,54,22l-1.2-1c0.4-0.3,0.8-0.6,1-1h-0.7v-6.8H58.5z M56.9,15.1v-0.5
			h-2v0.5H56.9z M56.9,16.9v-0.4h-2v0.4H56.9z M56.9,18.6v-0.4h-2v0.4H56.9z M61,16.2c0,0.4,0,0.7,0,1c0.3,0.2,0.5,0.5,0.8,0.7v-3.2
			H61V16.2z"/>
		<linearGradient id="SVGID_3_" gradientUnits="userSpaceOnUse" x1="75.7976" y1="3.3841" x2="75.7976" y2="35.4475">
			<stop  offset="0" style="stop-color:#A67A22"/>
			<stop  offset="0.2488" style="stop-color:#F8E69C"/>
			<stop  offset="0.7562" style="stop-color:#A67A22"/>
			<stop  offset="0.9179" style="stop-color:#D2B869"/>
			<stop  offset="1" style="stop-color:#E5D388"/>
		</linearGradient>
		<path class="st2" d="M68.9,8.1V4.9h1.9v3.3H72V10h-1.2v1c0.7,0.7,1.4,1.3,1.9,2l-0.1-0.8c0.3,0,0.6,0,0.8,0c0.4-0.6,0.7-1.2,1-1.7
			c-0.7-0.6-1.5-1-2.3-1.5l1-1.3c0.1,0.1,0.2,0.1,0.3,0.2c0.5-1,1-2,1.3-3l1.6,0.7c-0.6,1.2-1.1,2.2-1.6,3.1
			c0.1,0.1,0.2,0.2,0.3,0.2c0.2-0.5,0.5-1,0.7-1.5L77.4,8c-0.1-1-0.1-2-0.1-3.1l2-0.2c0,1.3,0,2.5,0.1,3.5l0.2-0.5
			C79.7,7.9,79.8,8,79.9,8c0.5-1,0.8-2.1,1.2-3.2l1.6,0.7c-0.5,1.3-1,2.4-1.5,3.3c0.1,0.1,0.2,0.2,0.3,0.3c0.3-0.7,0.6-1.4,0.9-2.1
			l1.6,0.7c-0.4,0.9-0.8,1.7-1.1,2.4l0.8-0.2c0.4,1,0.7,2,0.9,3.1l-1.5,0.4c0-0.2-0.1-0.3-0.1-0.5c-0.3,0.1-0.5,0.2-0.7,0.2
			c0.4,0.3,0.8,0.5,1.1,0.8l-0.5,0.6h1.5v1.8h-3.9c0.1,0.4,0.3,0.8,0.4,1.2c0.2-0.3,0.5-0.6,0.7-1l1.7,0.8c-0.5,0.8-0.9,1.5-1.4,2.1
			c0.2,0.3,0.4,0.5,0.5,0.5c0,0,0.1-0.1,0.1-0.2c0.1-0.2,0.1-0.6,0.2-1l1.9,0.7c-0.3,1.1-0.7,1.8-1.2,2.1c-0.3,0.2-0.7,0.3-1,0.3
			c-0.6,0-1.1-0.4-1.7-1.1c-0.1-0.1-0.1-0.1-0.2-0.2c-0.8,0.5-1.6,1-2.5,1.4l-1-1.7c1-0.4,1.9-0.8,2.5-1.3c-0.4-0.8-0.7-1.7-0.9-2.6
			H76c0,0.3,0,0.5,0,0.7c0.9,0.5,1.7,0.9,2.4,1.3L77.2,20c-0.5-0.4-1-0.7-1.5-1.1c-0.1,0.3-0.1,0.5-0.2,0.7
			c-0.3,0.9-0.6,1.7-1.2,2.4L72.5,21c0.5-0.6,0.8-1.3,1.1-2c0.2-0.6,0.3-1.5,0.4-2.5h-1.3v-1.8h5.5c-0.1-0.4-0.2-0.8-0.2-1.2
			l-1.3,0.4c0-0.2-0.1-0.3-0.1-0.5c-1.1,0.4-2.3,0.6-3.6,0.6l-0.1-0.4l-1.1,1.5c-0.3-0.5-0.6-1-0.9-1.4v8.5h-1.9v-6.4
			c-0.2,0.7-0.5,1.4-0.7,2L67,16.2c0.4-0.8,0.8-1.8,1.2-3.2c0.3-0.9,0.5-1.8,0.7-2.8V10h-1.6V8.1H68.9z M76,11.1
			c-0.2,0.3-0.4,0.6-0.5,0.9c0.3,0,0.5-0.1,0.7-0.2C76.2,11.6,76.1,11.3,76,11.1z M77.4,8.5c-0.4,0.8-0.8,1.5-1.2,2.2l1-0.3
			c0.2,0.5,0.3,1,0.5,1.6C77.6,10.9,77.5,9.7,77.4,8.5z M80.8,14.2l0.7-0.8c-0.5,0.1-0.9,0.1-1.3,0.1l-0.3-1.6c0.2,0,0.3,0,0.5,0
			c0.2-0.4,0.4-0.8,0.6-1.2c-0.5-0.4-1-0.7-1.5-1c0.1,1.9,0.3,3.5,0.6,4.8c0,0.1,0,0.2,0.1,0.3h1.3C81.2,14.5,81,14.3,80.8,14.2z
			 M82.5,11c-0.1,0.2-0.2,0.4-0.3,0.6c0.2,0,0.3-0.1,0.5-0.1C82.6,11.3,82.6,11.2,82.5,11z"/>
		<linearGradient id="SVGID_4_" gradientUnits="userSpaceOnUse" x1="95.2341" y1="3.3841" x2="95.2341" y2="35.4475">
			<stop  offset="0" style="stop-color:#A67A22"/>
			<stop  offset="0.2488" style="stop-color:#F8E69C"/>
			<stop  offset="0.7562" style="stop-color:#A67A22"/>
			<stop  offset="0.9179" style="stop-color:#D2B869"/>
			<stop  offset="1" style="stop-color:#E5D388"/>
		</linearGradient>
		<path class="st3" d="M88.7,7.9V4.9h2v3.1h1.6v2h-1.6v1c0.9,0.9,1.7,1.7,2.3,2.5l-1.3,1.9c-0.3-0.6-0.7-1.1-1-1.6v8.4h-2v-6.9
			c-0.3,0.9-0.6,1.7-1,2.4l-1.3-1.6c0.4-0.8,0.9-1.9,1.3-3.2c0.3-0.9,0.6-1.9,0.8-2.9h-1.8v-2H88.7z M95,5.7V4.9h2.1v0.8H99V4.9h2.1
			v0.8h2.2v1.8h-2.2v0.6h1.9v1.8h-1.9v0.6h2.5v1.8h-4.5v0.5h4v4.9h1v1.7h-1v0.2c0,1.6-0.9,2.5-2.8,2.5c-0.3,0-0.7,0-1.2-0.1
			l-0.5-2.2c0.6,0.2,1.1,0.2,1.6,0.2c0.4,0,0.7-0.2,0.7-0.7h-5.7v2.7h-2v-2.7h-1.2v-1.7h1.2v-4.9h3.8v-0.5h-4.5v-1.8H95V9.9h-1.9
			V8.1H95V7.5h-2.4V5.7H95z M97.1,15.3v-0.7h-1.8v0.7H97.1z M97.1,17.7v-0.7h-1.8v0.7H97.1z M99,7.5h-1.9v0.6H99V7.5z M99,10.4V9.9
			h-1.9v0.6H99z M99.1,15.3h1.9v-0.7h-1.9V15.3z M101,17.7v-0.7h-1.9v0.7H101z"/>
	</g>
	<g>
		<g>
			<linearGradient id="SVGID_5_" gradientUnits="userSpaceOnUse" x1="5.0875" y1="6.1717" x2="5.0875" y2="21.5487">
				<stop  offset="0" style="stop-color:#A67A22"/>
				<stop  offset="0.2488" style="stop-color:#F8E69C"/>
				<stop  offset="0.7562" style="stop-color:#A67A22"/>
				<stop  offset="0.9179" style="stop-color:#D2B869"/>
				<stop  offset="1" style="stop-color:#E5D388"/>
			</linearGradient>
			<polygon class="st4" points="0.8,10.9 6.4,20.9 9.4,20.9 4.6,10.9 			"/>
			<linearGradient id="SVGID_6_" gradientUnits="userSpaceOnUse" x1="21.5086" y1="6.1717" x2="21.5086" y2="21.5487">
				<stop  offset="0" style="stop-color:#A67A22"/>
				<stop  offset="0.2488" style="stop-color:#F8E69C"/>
				<stop  offset="0.7562" style="stop-color:#A67A22"/>
				<stop  offset="0.9179" style="stop-color:#D2B869"/>
				<stop  offset="1" style="stop-color:#E5D388"/>
			</linearGradient>
			<polygon class="st5" points="22,10.9 17.2,20.9 20.2,20.9 25.8,10.9 			"/>
			<linearGradient id="SVGID_7_" gradientUnits="userSpaceOnUse" x1="13.2981" y1="6.1717" x2="13.2981" y2="21.5487">
				<stop  offset="0" style="stop-color:#A67A22"/>
				<stop  offset="0.2488" style="stop-color:#F8E69C"/>
				<stop  offset="0.7562" style="stop-color:#A67A22"/>
				<stop  offset="0.9179" style="stop-color:#D2B869"/>
				<stop  offset="1" style="stop-color:#E5D388"/>
			</linearGradient>
			<polygon class="st6" points="17.6,9.3 14.2,17.5 15.2,10.1 13.3,10.1 11.4,10.1 12.4,17.5 9,9.3 5.6,9.3 10.7,20.9 13.3,20.9 
				15.9,20.9 21,9.3 			"/>
			<linearGradient id="SVGID_8_" gradientUnits="userSpaceOnUse" x1="13.2981" y1="6.1717" x2="13.2981" y2="21.5487">
				<stop  offset="0" style="stop-color:#A67A22"/>
				<stop  offset="0.2488" style="stop-color:#F8E69C"/>
				<stop  offset="0.7562" style="stop-color:#A67A22"/>
				<stop  offset="0.9179" style="stop-color:#D2B869"/>
				<stop  offset="1" style="stop-color:#E5D388"/>
			</linearGradient>
			<polygon class="st7" points="15.3,7.9 13.3,6 11.3,7.9 13.3,9.9 			"/>
		</g>
		<g id="光芒2.psd_7_">
			
				<image style="overflow:visible;" width="1259" height="872" id="光芒2" xlink:href="94235D0DEB949A70.png"  transform="matrix(-2.514803e-02 0 0 2.787911e-02 29.449 -4.0253)">
			</image>
		</g>
	</g>
</g>
</svg>
