<?xml version="1.0" encoding="utf-8"?>
<!-- Generator: Adobe Illustrator 24.1.1, SVG Export Plug-In . SVG Version: 6.00 Build 0)  -->
<svg version="1.1" id="圖層_1" xmlns="http://www.w3.org/2000/svg" xmlns:xlink="http://www.w3.org/1999/xlink" x="0px" y="0px"
	 viewBox="0 0 331 228.9" style="enable-background:new 0 0 331 228.9;" xml:space="preserve">
<style type="text/css">
	.st0{fill:#FFFFFF;}
	.st1{fill:url(#SVGID_1_);}
	.st2{fill:url(#SVGID_2_);}
	.st3{fill:url(#SVGID_3_);}
	.st4{fill:url(#SVGID_4_);}
	.st5{fill:url(#SVGID_5_);}
	.st6{fill:url(#SVGID_6_);}
	.st7{fill:url(#SVGID_7_);}
	.st8{fill:url(#SVGID_8_);}
	.st9{fill:url(#SVGID_9_);}
	.st10{fill:url(#SVGID_10_);}
</style>
<g>
	<path class="st0" d="M65.3,206.4v2h-9.8v2.1h9v14.8c0,0.8-0.2,1.4-0.7,1.9c-0.4,0.4-0.9,0.6-1.6,0.6h-2.6l-0.5-2.3l2.1,0.2
		c0.5,0,0.8-0.4,0.8-1v-2l-0.9,1.5c-1-1.8-1.6-3.4-2-4.8c-0.6,1.8-1.5,3.5-2.5,5l-1.1-1.4v4.5h-2.3v-4.9l-1.1,1.9
		c-1-1.8-1.6-3.4-2-4.9c-0.6,1.8-1.4,3.4-2.3,4.9l-1-1.3v4.6h-2.5v-17.3h8.9v-2.1h-10v-2H65.3z M47.9,220.2c0.6-1.2,1-2.4,1.1-3.6
		h-1.6v-1.9h3.7c0,2.1,0.2,3.6,0.7,4.7c0.2,0.8,0.6,1.6,1.4,2.6v-9.2h-6.4v9.2C47.4,221.2,47.7,220.6,47.9,220.2z M56.9,220.1
		c0.7-1.1,1.1-2.3,1.2-3.5h-1.7v-2h3.8c0.1,2,0.3,3.5,0.7,4.5c0.1,0.6,0.5,1.4,1.1,2.2v-8.6h-6.5v9.3
		C56.2,221.2,56.7,220.6,56.9,220.1z"/>
	<path class="st0" d="M90.4,207.2c-5.4,0.4-11.5,0.7-18.3,0.8v1.3h17.4v6h-8.2l0.8,1.8h8.6v1.9h-11c0,0.7-0.1,1.3-0.3,2h9.9
		c-0.2,2.9-0.4,4.6-0.7,5.3c-0.2,0.5-0.6,0.9-1.4,1.2c-0.5,0.2-2.3,0.3-5.4,0.3l-0.6-2.3c0.8,0.1,1.4,0.1,1.8,0.1
		c1.5,0,2.4-0.1,2.7-0.2c0.6-0.2,0.9-1.1,1-2.6h-8c-0.2,0.5-0.5,1-0.8,1.4c-1,1.3-2.7,2.6-5.1,3.8l-1.4-2.2c2-0.8,3.4-1.7,4.4-2.7
		c0.8-1,1.3-2.3,1.5-4H72c-0.1,1.3-0.3,2.6-0.6,3.9c-0.4,1.7-1,3.2-1.9,4.7l-1.7-1.8c0.7-1.2,1.2-2.4,1.5-3.7s0.5-2.9,0.6-4.7v-11.4
		c7.8,0,14.2-0.3,19.4-1L90.4,207.2z M87.4,213.4v-2H72.1v2H87.4z M79.6,217.2l-0.8-1.8h-6.7v1.8H79.6z"/>
	<path class="st0" d="M102.4,218.5v-3.8h3.8v3.8H102.4z"/>
	<path class="st0" d="M122.4,205.5c-0.2,0.7-0.4,1.3-0.6,1.8h2.7c-0.3-0.6-0.6-1.3-1-1.8l2-0.3c0.4,0.7,0.7,1.3,1,2.1h2.7v1.6h-3
		v1.5h2.5v1.5h-2.5v1.4h2.8v1.5h-2.8v1.6h3v1.7h-9.8v-6.6c-0.3,0.5-0.6,0.9-1,1.3l-0.7-2.3c0.6-0.8,1.1-1.6,1.5-2.5
		c0.4-0.7,0.9-1.8,1.3-3.3L122.4,205.5z M138.8,219.4v1.5c-1.5,1.4-3.6,2.6-6.1,3.6c2.1,0.5,4.8,1,8,1.3l-1.2,2.2
		c-3.8-0.6-7.1-1.3-9.9-2.3c-3.1,1-6.7,1.8-10.7,2.2l-1-2c3.4-0.3,6.4-0.7,8.9-1.3c-1.8-0.9-3.3-2-4.6-3.3h-2.8v-1.8L138.8,219.4
		L138.8,219.4z M124.2,208.9h-2.6v1.5h2.6V208.9z M124.2,211.9h-2.6v1.4h2.6V211.9z M124.2,214.8h-2.6v1.6h2.6V214.8z M129.9,223.7
		c1.9-0.7,3.6-1.5,5.1-2.4h-9.7C126.6,222.3,128.1,223.1,129.9,223.7z M133.2,205.6c-0.2,0.6-0.4,1.2-0.6,1.7h2.9
		c-0.3-0.5-0.7-1.1-1.2-1.7l1.8-0.7c0.5,0.7,1,1.5,1.4,2.4h2.9v1.6h-3.1v1.4h2.6v1.5h-2.6v1.5h2.7v1.5h-2.7v1.6h3.1v1.7h-10.1v-6.7
		c-0.2,0.4-0.5,0.7-0.8,1.1l-0.7-2.3c0.5-0.8,0.9-1.5,1.3-2.3c0.4-0.7,0.8-1.7,1.1-3.1L133.2,205.6z M135.3,208.9h-2.8v1.4h2.8
		V208.9z M135.3,211.8h-2.8v1.5h2.8V211.8z M135.3,214.8h-2.8v1.6h2.8V214.8z"/>
	<path class="st0" d="M151.6,207c0.4-0.6,0.7-1.2,1.1-1.9l2.2,0.3c-0.3,0.6-0.5,1.2-0.8,1.7h11.3v2.2h-6.3c0.7,0.5,1.4,1,2.1,1.4
		c1.3,0.8,2.8,1.4,4.6,2l-1.2,2.1c-1.4-0.6-2.7-1.2-3.8-1.9v0.2h-11v1.2H161v1.8h-11.2v1.4H161v1.8h-11.2v1.3h14.6v2h-2.7
		c1.1,1.4,2,2.8,2.8,4.4l-2.1,1c-0.2-0.5-0.5-0.9-0.7-1.4c-3.7,0.3-9.2,0.6-16.7,0.8l-0.6-2.2h2.3l1.8-2.5h-4.8v-2h3.6v-7.4
		c-1.1,0.6-2.3,1.1-3.7,1.7l-1.2-2.1c2.8-1,5-2,6.5-3.1c0.2-0.1,0.4-0.3,0.6-0.5h-6.7v-2.2h8.8V207z M159.5,223.1l1.2-0.4h-9.4
		l-1.8,2.5c4.6-0.1,8.3-0.2,11.2-0.4C160.3,224.3,159.9,223.7,159.5,223.1z M158.4,211.2c-0.8-0.6-1.5-1.2-2.2-2h-3.4
		c-0.4,0.5-0.8,1-1.2,1.4c-0.2,0.2-0.4,0.4-0.6,0.5h7.4V211.2z"/>
	<path class="st0" d="M190.4,207.2c-5.4,0.4-11.5,0.7-18.3,0.8v1.3h17.4v6h-8.2l0.8,1.8h8.6v1.9h-11.1c0,0.7-0.2,1.3-0.3,2h9.9
		c-0.2,2.9-0.5,4.6-0.8,5.3c-0.2,0.5-0.6,0.9-1.4,1.2c-0.5,0.2-2.3,0.3-5.4,0.3l-0.6-2.3c0.8,0.1,1.4,0.1,1.8,0.1
		c1.5,0,2.4-0.1,2.7-0.2c0.6-0.2,1-1.1,1-2.6h-8c-0.2,0.5-0.5,1-0.8,1.4c-1,1.3-2.7,2.6-5.1,3.8l-1.4-2.2c2-0.8,3.4-1.7,4.4-2.7
		c0.8-1,1.3-2.3,1.5-4h-5.3c-0.1,1.3-0.3,2.6-0.6,3.9c-0.4,1.7-1,3.2-1.9,4.7l-1.8-1.8c0.7-1.2,1.2-2.4,1.5-3.7s0.5-2.9,0.6-4.7
		v-11.4c7.8,0,14.2-0.3,19.4-1L190.4,207.2z M187.4,213.4v-2h-15.2v2H187.4z M179.6,217.2l-0.8-1.8h-6.7v1.8H179.6z"/>
	<path class="st0" d="M202.4,218.5v-3.8h3.8v3.8H202.4z"/>
	<path class="st0" d="M218.5,222.9l6.8-6.7c0.5-0.5,1-1.1,1.3-1.6s0.5-1.2,0.5-1.9c0-0.8-0.3-1.5-0.8-2s-1.2-0.7-2-0.7
		c-0.9,0-1.5,0.3-2.1,0.9c-0.5,0.6-0.8,1.3-0.9,2.2l-2.9-0.5c0.1-0.7,0.3-1.4,0.6-2s0.8-1.2,1.3-1.6s1.1-0.8,1.8-1.1
		s1.4-0.4,2.3-0.4c0.8,0,1.5,0.1,2.2,0.3s1.3,0.5,1.9,1c0.5,0.4,1,1,1.3,1.6s0.5,1.4,0.5,2.2c0,0.6-0.1,1.1-0.2,1.6
		c-0.2,0.5-0.4,1-0.6,1.4c-0.3,0.4-0.6,0.8-0.9,1.2s-0.7,0.8-1.1,1.1l-5.1,4.9h8v2.8h-11.8v-2.7H218.5z"/>
	<path class="st0" d="M239.1,216.8v-5.5h2.5v5.5h5.5v2.5h-5.5v5.5h-2.5v-5.5h-5.5v-2.5H239.1z"/>
	<path class="st0" d="M255.7,211.6l-3.5,2.9l-1.8-2.1l5.5-4.5h2.7v17.7h-3L255.7,211.6L255.7,211.6z"/>
	<path class="st0" d="M287.5,207.2c-5.4,0.4-11.5,0.7-18.3,0.8v1.3h17.4v6h-8.2l0.8,1.8h8.6v1.9h-11.1c0,0.7-0.2,1.3-0.3,2h9.9
		c-0.2,2.9-0.5,4.6-0.8,5.3c-0.2,0.5-0.6,0.9-1.4,1.2c-0.5,0.2-2.3,0.3-5.4,0.3l-0.6-2.3c0.8,0.1,1.4,0.1,1.8,0.1
		c1.5,0,2.4-0.1,2.7-0.2c0.6-0.2,1-1.1,1-2.6h-8c-0.2,0.5-0.5,1-0.8,1.4c-1,1.3-2.7,2.6-5.1,3.8l-1.4-2.2c2-0.8,3.4-1.7,4.4-2.7
		c0.8-1,1.3-2.3,1.5-4H269c-0.1,1.3-0.3,2.6-0.6,3.9c-0.4,1.7-1,3.2-1.9,4.7l-1.8-1.8c0.7-1.2,1.2-2.4,1.5-3.7s0.5-2.9,0.6-4.7
		v-11.4c7.8,0,14.2-0.3,19.4-1L287.5,207.2z M284.5,213.4v-2h-15.2v2H284.5z M276.8,217.2l-0.8-1.8h-6.7v1.8H276.8z"/>
</g>
<g>
	<linearGradient id="SVGID_1_" gradientUnits="userSpaceOnUse" x1="24.0419" y1="-4.1817" x2="24.0419" y2="78.4851">
		<stop  offset="0" style="stop-color:#A67A22"/>
		<stop  offset="0.4916" style="stop-color:#F8E69C"/>
		<stop  offset="0.7643" style="stop-color:#D5B761"/>
	</linearGradient>
	<path class="st1" d="M31.2,49.5H16.5L13.6,61H1.4L16.9,11h14.4L46.7,61H34.1L31.2,49.5z M28.9,40.2L27.9,36c-1.3-5-2.6-10.9-4-16
		h-0.3c-1.2,5.2-2.6,11.1-3.8,16l-1.1,4.2H28.9z"/>
	<linearGradient id="SVGID_2_" gradientUnits="userSpaceOnUse" x1="67.198" y1="-4.1817" x2="67.198" y2="78.4851">
		<stop  offset="0" style="stop-color:#A67A22"/>
		<stop  offset="0.4916" style="stop-color:#F8E69C"/>
		<stop  offset="0.7643" style="stop-color:#D5B761"/>
	</linearGradient>
	<path class="st2" d="M51.4,51.3H62V22.9h-9.2v-7.4c5.4-1,8.9-2.3,12.4-4.5H74v40.3h9V61H51.4V51.3z"/>
	<linearGradient id="SVGID_3_" gradientUnits="userSpaceOnUse" x1="107.6037" y1="-4.1817" x2="107.6037" y2="78.4851">
		<stop  offset="0" style="stop-color:#A67A22"/>
		<stop  offset="0.4916" style="stop-color:#F8E69C"/>
		<stop  offset="0.7643" style="stop-color:#D5B761"/>
	</linearGradient>
	<path class="st3" d="M112,20.9H90.5V11h34.2v7.2C113.2,32,112,41.4,111.1,61h-12C100,44.5,102.6,34,112,20.9z"/>
	<linearGradient id="SVGID_4_" gradientUnits="userSpaceOnUse" x1="161.5004" y1="-4.1817" x2="161.5004" y2="78.4851">
		<stop  offset="0" style="stop-color:#A67A22"/>
		<stop  offset="0.4916" style="stop-color:#F8E69C"/>
		<stop  offset="0.7643" style="stop-color:#D5B761"/>
	</linearGradient>
	<path class="st4" d="M138.3,28.5c-1.4,1.5-2.8,3-4.2,4.4c-1.1-2.6-3.4-6.3-5.3-8.6c5.8-4.6,12.2-12.6,15.5-21.2l7.2,4.5
		c-0.5,1.1-1,2.3-1.5,3.4c4,3.6,8.4,7.7,10.6,10.5l-4.6,7.9c-0.7-0.9-1.5-2-2.6-3.2v6h-15.2V28.5z M160.6,38.8
		c-2.4,6.4-6.2,13-10.1,18.1c1.5,1.5,2.9,3,4,4.3l-6.4,5.8c-3-3.8-9.2-10-13.9-14l6-5.1c1.2,0.9,2.6,2.1,4,3.3
		c1.8-2.2,3.7-5,5.2-7.7h-17.1v-7.9h21.1l1.3-0.5L160.6,38.8z M151.5,23.9c-1.7-1.9-3.6-3.8-5.5-5.6c-1.3,1.9-2.6,3.8-3.9,5.6H151.5
		z M183.5,53.5c3.4,2.5,8.3,6.1,10.7,8.6l-7.5,5.4c-2.1-2.5-6.8-6.5-10.4-9.3l6.8-4.8H169l6.8,4.6c-3.7,3.5-9.9,7.4-14.9,9.4
		c-1.5-1.8-4.2-4.6-6.2-6.3c4.6-1.7,9.8-5,12.8-7.7H161v-36h9.3c0.1-1.1,0.3-2.3,0.4-3.4h-11.8V5.9h33.4V14H181
		c-0.3,1.2-0.7,2.3-1.1,3.4h10.7v36H183.5z M181.6,24.5h-11.9v3h11.9V24.5z M181.6,34h-11.9v3h11.9V34z M181.6,43.4h-11.9v3.1h11.9
		V43.4z"/>
	<linearGradient id="SVGID_5_" gradientUnits="userSpaceOnUse" x1="228.453" y1="-4.1817" x2="228.453" y2="78.4851">
		<stop  offset="0" style="stop-color:#A67A22"/>
		<stop  offset="0.4916" style="stop-color:#F8E69C"/>
		<stop  offset="0.7643" style="stop-color:#D5B761"/>
	</linearGradient>
	<path class="st5" d="M253.5,57.9c0.1,0,0.3-0.1,0.3-0.3c0.1-0.2,0.2-0.7,0.3-2c0.1-1.2,0.1-3.9,0.1-7.2c1.5,1.4,4.3,2.8,6.4,3.5
		c-0.1,3.4-0.4,7.5-0.8,9.3c-0.4,1.7-1.1,3-2.2,3.8c-1,0.9-2.6,1.2-4,1.2h-3.3c-1.7,0-3.6-0.7-4.8-2c-1.2-1.4-1.7-3.2-1.7-8.3V34.4
		h-4.6v7c0,8.3-1.1,19.4-7.5,26c-1.5-1.4-5-4-7.2-5.2c-0.4,1.5-1.1,2.5-2.3,3.3c-2.2,1.4-5,1.6-8.8,1.6c-0.2-2.3-1.3-6-2.4-8.2
		c1.8,0.1,3.9,0.1,4.6,0.1c0.7,0,0.9-0.3,0.9-1v-8l-5,2.2c-0.5-1.9-1.4-4.6-2.5-7.2c-0.5,8.1-1.8,17-5.5,23
		c-1.5-1.4-5.3-3.8-7.3-4.7c3.7-6,4.4-14.6,4.6-22.3l-3.5,0.6l-1.1-7.9c1.4-0.2,3-0.3,4.6-0.6V11.5h6.5c0.5-2.7,1-5.7,1.2-8.1
		l9.7,1.5c-0.8,2.3-1.6,4.6-2.3,6.6h8.9v18.3l2.6-0.4l0.6,7.2l-3.2,0.5v21.1c0,1.2-0.1,2.3-0.2,3.2c5.1-5.8,5.5-13.7,5.5-20.1V26
		h22.8v29.1c0,1.3-0.1,2,0,2.3c0.1,0.3,0.2,0.4,0.3,0.4H253.5z M213.6,40.2c1,2.1,2.1,4.5,3,6.6v-8.3l-7.2,1.2l-0.1,2.3L213.6,40.2z
		 M216.5,19h-7.2v2.5l4.6-1.8c0.9,2.1,1.9,4.6,2.6,6.8V19z M209.3,32l7.2-1v-2.3l-5.4,2.3c-0.4-1.7-1.1-4.1-1.9-6.3V32z M258.8,21.9
		h-32.1v-8.5H238c-0.8-2.6-1.8-5.2-2.9-7.6l8.8-2.3c1.5,3,3.2,6.8,4,9.9h10.9V21.9z"/>
	<linearGradient id="SVGID_6_" gradientUnits="userSpaceOnUse" x1="296.0416" y1="-4.1817" x2="296.0416" y2="78.4851">
		<stop  offset="0" style="stop-color:#A67A22"/>
		<stop  offset="0.4916" style="stop-color:#F8E69C"/>
		<stop  offset="0.7643" style="stop-color:#D5B761"/>
	</linearGradient>
	<path class="st6" d="M290.6,47l0.9,9c-8.5,2-17.7,4-25,5.6l-2-9.6c3.8-0.6,8.5-1.5,13.6-2.5c1.6-6.6,3-16.6,3.5-24.1l9,1.4
		c-1.3,7-3,15-4.5,21.1L290.6,47z M292.5,23.8H265v-8.9h10.8c-0.7-2.6-2.1-6-3.4-8.7l8.4-2.3c1.7,3,3.4,6.9,4.2,9.5l-4.6,1.5h12.2
		V23.8z M269.3,48.7c-0.1-5.8-1.2-14.7-2.3-21.5l7.5-1.4c1.3,6.8,2.3,15.4,2.8,21.3L269.3,48.7z M312.7,24.3v10.6h12.8V67h-10v-2.9
		H302v3.2h-9.5V34.9h10.1V3.5h10.1V15h14.8v9.3H312.7z M315.5,44H302V55h13.5V44z"/>
	<linearGradient id="SVGID_7_" gradientUnits="userSpaceOnUse" x1="39.7062" y1="63.5884" x2="39.7062" y2="166.4686">
		<stop  offset="0" style="stop-color:#A67A22"/>
		<stop  offset="0.4916" style="stop-color:#F8E69C"/>
		<stop  offset="0.7643" style="stop-color:#D5B761"/>
	</linearGradient>
	<path class="st7" d="M47.1,95.4c-0.7,1.3-1.3,2.5-1.9,3.7h24.3v53.5H56.7v-3.4H21.2v3.4H9V99.1h22.2c0.4-1.3,0.8-2.4,1-3.7H1.5
		V84.2h17.8c-1.6-2.3-3.7-4.9-5.5-6.9l10.9-4.8c3.2,2.9,6.6,6.9,8.4,9.9l-3.7,1.9h17.5c2.2-3.4,4.4-7.9,5.8-11.3l14.1,2.8
		c-2.1,3.1-4.3,5.9-6.3,8.4h17.5v11.2H47.1z M56.7,109.6H21.2v3.3h35.6V109.6z M21.2,125.7h35.6V122H21.2V125.7z M56.7,138.7v-3.9
		H21.2v3.9H56.7z"/>
	<linearGradient id="SVGID_8_" gradientUnits="userSpaceOnUse" x1="122.1936" y1="63.5884" x2="122.1936" y2="166.4686">
		<stop  offset="0" style="stop-color:#A67A22"/>
		<stop  offset="0.4916" style="stop-color:#F8E69C"/>
		<stop  offset="0.7643" style="stop-color:#D5B761"/>
	</linearGradient>
	<path class="st8" d="M161.8,80.7v10.8h-60.1V104c0,14-1.3,35.4-9.2,48.6c-2.1-2-7.2-5.4-9.9-6.7c7-11.9,7.5-29.6,7.5-41.9V80.7
		h30.2c-0.7-1.8-1.4-3.8-2.2-5.4L130,72c1.5,2.7,2.9,5.9,3.9,8.8H161.8z M149.2,98.1h12v9.7h-12v12.4h-12.4v3.3h20.6V138
		c0,4.9-0.8,7.8-4.2,9.4c-3.2,1.6-7.3,1.6-12.3,1.6c-0.4-3.2-1.8-7.4-3.1-10.4c2.3,0.2,5.5,0.2,6.3,0.2c0.9,0,1.3-0.3,1.3-1.1v-4.1
		h-8.7v19h-11.9v-19h-8.1v14.5H105v-24.7h19.9v-3.3h-12v-12.4h-9.6v-9.7h9.6v-5.5h11.2v5.5h13.4v-5.5h11.8V98.1z M137.4,107.8h-13.4
		v3h13.4V107.8z"/>
	<linearGradient id="SVGID_9_" gradientUnits="userSpaceOnUse" x1="205.9336" y1="63.5884" x2="205.9336" y2="166.4686">
		<stop  offset="0" style="stop-color:#A67A22"/>
		<stop  offset="0.4916" style="stop-color:#F8E69C"/>
		<stop  offset="0.7643" style="stop-color:#D5B761"/>
	</linearGradient>
	<path class="st9" d="M220.5,140.4h25.4v10.4h-62.5v-10.4h25.4v-5.9h-20.2v-10.4h20.2V115l-4.8,5.9c-1.3-1.8-3.5-4.3-5.8-6.6
		c-1.8,2.9-3.8,5.5-6.3,7.6c-1.5-1.5-4.9-4.2-7.5-5.8c-0.8,12.2-2.9,26.1-8.2,35.7c-2.2-2.1-7.5-5.6-10.4-6.8
		c6.6-12,7.1-29.9,7.1-42.3V80.2h31.9c-0.8-1.6-1.6-3.2-2.4-4.6l11.8-3.6c1.7,2.4,3.3,5.4,4.5,8.2h26.5v11.2h-60.4v11.4
		c0,3.3-0.1,7.2-0.3,11.3c5.2-4.5,7.8-11.4,8.6-19.5l10.9,1.2c-0.4,3.1-1,6-1.8,8.8c2.3,2,4.7,4.3,6.5,6.2v-17h11.7v18
		c3.9-4.3,6.3-10.4,7.3-17.2l10.7,1.4c-0.6,3.5-1.4,6.8-2.5,9.9c3.8,2.9,7.9,6.2,10.2,8.4l-6.6,7.9c-1.8-2-4.8-4.7-7.9-7.4
		c-1.8,2.7-3.8,5.1-6.1,7c-1.1-1.1-3.1-2.8-5-4.3v6.7h21.1v10.4h-21.1V140.4z"/>
	<linearGradient id="SVGID_10_" gradientUnits="userSpaceOnUse" x1="289.5478" y1="63.5884" x2="289.5478" y2="166.4686">
		<stop  offset="0" style="stop-color:#A67A22"/>
		<stop  offset="0.4916" style="stop-color:#F8E69C"/>
		<stop  offset="0.7643" style="stop-color:#D5B761"/>
	</linearGradient>
	<path class="st10" d="M275.3,126.2c-0.7-2.1-1.8-4.7-2.9-7.4v33.8h-10.9v-30.7c-1.9,6.1-4.1,11.7-6.5,15.8
		c-1.1-3.7-3.7-9.3-5.4-12.6c4.4-6,8.4-16.9,10.5-25.4h-8.3V88.5h9.7V73.2h10.9v15.3h7.6v11.2h-7.6v3.3c2.2,2.8,8.5,12.7,9.9,15.1
		L275.3,126.2z M297.1,135.4c-2.8,5.9-7.4,12.2-11.6,16c-2-1.8-6.3-4.9-8.9-6.4c4-3.2,7.9-8,9.9-12.6L297.1,135.4z M294.1,85.3
		h-13.8v-9.4h48.2v9.4h-14.8V88h13.2v21h-45.2V88h12.4V85.3z M309.5,131.4v21.1h-10.8v-21.1h-18.5V122h48.2v9.4H309.5z M285,120v-9
		h38.8v9H285z M291.4,100.5h2.7v-4.1h-2.7V100.5z M305.3,85.3h-2.8V88h2.8V85.3z M302.5,100.5h2.8v-4.1h-2.8V100.5z M319.7,132.5
		c3.8,3.9,7.9,9.1,9.9,12.7l-9.3,5.3c-1.8-3.7-5.9-9.4-9.5-13.5L319.7,132.5z M313.7,96.4v4.1h2.8v-4.1H313.7z"/>
</g>
<g>
	<path class="st0" d="M13.2,186c-0.4-1-1.1-2.3-1.7-3.6v14.4H6.7v-11.8c-0.8,2.5-1.7,4.8-2.7,6.4c-0.5-1.7-1.7-4.3-2.5-5.9
		c2-2.7,3.7-7.5,4.5-11.6H2.3v-4.9h4.4v-6.9h4.8v6.9h3.7v4.7h21.4v3.9H14.6v-3.7h-3.1v1.8c1,1.2,3.7,4.7,4.3,5.5L13.2,186z
		 M30.5,190.4c2.3,1,5,2.3,6.5,3.2l-4.3,3.4c-1.4-1-4-2.6-6.3-3.6l3-3h-8.3l3.5,2.6c-2,1.6-5.3,3.2-8,4c-0.7-1.1-2-2.7-3-3.7
		c2.1-0.6,4.7-1.8,6.3-2.9h-3.7v-11.8h18.8v11.8H30.5z M18.8,168.8h-3.9v-3.7h3.9v-2.1h4.6v2.1h3.9v-2.1h4.9v2.1h3.7v3.7h-3.7v4.3
		H18.8V168.8z M20.7,183.1H23v-0.9h-2.3V183.1z M20.7,187H23V186h-2.3V187z M23.5,168.8v1.1h3.9v-1.1H23.5z M30.2,182.1h-2.3v0.9
		h2.3V182.1z M30.2,186h-2.3v0.9h2.3V186z"/>
	<path class="st0" d="M71,170.2v26.7h-5.5v-2.5H40.6v-24h5.5v18.5h6.8v-26.3h5.6v26.3h7v-18.7H71z"/>
	<path class="st0" d="M94.6,175.6v0.8h11.2v3.1H94.6v0.9h14v3.6H75.5v-3.6h13.7v-0.9H78.1v-3.1h11.1v-0.8H78.8v-3h10.4v-0.9H75.5
		v-3.6h13.7v-0.9h-10v-3h10v-2.1h5.3v2.1h10v3.9h4.1v3.6h-4.1v3.9H94.6z M80,184.8h24.7V197h-5.3v-1H85.1v1H80V184.8z M85.1,188v0.9
		h14.2V188H85.1z M99.4,192.7v-0.9H85.1v0.9H99.4z M94.6,168.2h4.7v-0.9h-4.7V168.2z M94.6,172.6h4.7v-0.9h-4.7V172.6z"/>
	<path class="st0" d="M118.2,180.3c-1.4-1.2-4.5-2.9-6.9-3.9l2.8-4c2.3,0.8,5.5,2.3,7.1,3.5L118.2,180.3z M123.4,185.1
		c-1.9,3.8-4.1,7.7-6.3,11.4l-4.5-3.6c1.9-2.7,4.7-7.1,6.9-11.3L123.4,185.1z M120.3,170.7c-1.4-1.3-4.4-3-6.7-4.1l2.9-3.9
		c2.2,0.9,5.3,2.4,6.9,3.6L120.3,170.7z M140.9,196.8c-0.2-0.9-0.6-1.9-1.1-3.1c-11.4,1.4-13.4,1.7-14.8,2.4
		c-0.3-1.1-1.2-3.7-1.9-5.2c0.9-0.3,1.6-1,2.4-2.4c0.6-0.9,2-3.7,3.2-7.1h-6.2v-5h8.3v-4.3H124v-5h6.9v-4.9h5.4v4.9h7.1v5h-7.1v4.3
		h8.3v5H135c-1.3,3-2.9,6-4.5,8.5l7-0.7c-0.7-1.1-1.3-2.2-2-3.2l4.3-2.1c2.4,3.2,4.9,7.3,5.9,10.4L140.9,196.8z"/>
	<path class="st0" d="M162.8,164.9c-2.7,6-7.1,12.4-11,16.2c-1-1.2-3.4-3.5-4.7-4.6c3.8-3.2,7.6-8.5,9.8-13.6L162.8,164.9z
		 M173,181.3c2.9,4.1,6.3,9.3,8,12.8l-5.5,2.9c-0.5-1.1-1.1-2.3-1.9-3.7c-16.9,1.5-19.7,1.7-21.7,2.5c-0.3-1.1-1.4-4.1-2.1-5.7
		c1.3-0.4,2.3-1.2,3.7-2.8c1.6-1.5,6.1-7.6,8.8-13.5l6.3,2.5c-2.6,4.6-5.9,9-9.3,12.7l11.4-0.8c-1-1.6-2-3.2-3-4.7L173,181.3z
		 M173.6,163.2c1.5,4.7,4.7,9.7,9.2,12.4c-1.2,1.2-3.1,3.8-4,5.5c-4.2-3.2-7.3-7.9-9.3-12.4h-5.3v-5.5H173.6z"/>
	<path class="st0" d="M216.9,163.6v33.3h-5.2v-1.2h-21.5v1.2h-4.9v-33.3H216.9z M211.7,191v-22.6h-21.5V191h4.7
		c-0.2-0.8-0.7-1.9-1.1-2.4c0.5-0.3,1.1-0.7,1.1-2V186c-0.8,0.3-1.6,0.5-2.3,0.8c-0.5-0.7-1.7-2.2-2.4-2.8c2-0.4,4.1-1,6-1.7h-3.4
		v-5.1h16.7v5.1h-7.3c-1,0.8-2.2,1.6-3.5,2.3v2.3l4-0.8c-0.1,0.9-0.1,2.3,0,3.1c-5,1.2-6.6,1.6-7.4,2H211.7z M210.8,176.3h-19.7
		v-2.8h7.4v-0.9h-5.9v-2.7h5.9v-1.2h4.8v1.2h6.2v2.7h-6.2v0.9h7.5V176.3z M204.9,180.1v-0.9h-7.8v0.9H204.9z M211.5,184.4
		c-0.8,0.6-1.7,1.2-2.5,1.7c1,0.7,2,1.5,2.7,2.1l-3.3,1.9c-1.7-1.6-5.3-4.3-8.1-6.1l3.1-1.7c0.9,0.5,1.9,1.2,2.9,1.9
		c0.8-0.6,1.6-1.2,2.2-1.8L211.5,184.4z"/>
	<path class="st0" d="M229.1,189.7c6.8-6.1,11.3-11.1,11.3-15c0-2.5-1.4-3.8-3.5-3.8c-1.9,0-3.3,1.2-4.6,2.6l-3.5-3.5
		c2.7-2.8,5.1-4.2,9-4.2c5.2,0,8.9,3.3,8.9,8.5c0,4.7-4,9.8-8.1,14c1.3-0.2,3.2-0.4,4.4-0.4h5v5.5h-18.8V189.7z"/>
	<path class="st0" d="M251.2,179.7c0-9.3,3.9-13.9,9.6-13.9c5.7,0,9.6,4.7,9.6,13.9c0,9.3-3.9,14.2-9.6,14.2
		C255.1,193.9,251.2,189,251.2,179.7z M264.3,179.7c0-7.4-1.6-8.9-3.5-8.9c-1.9,0-3.5,1.5-3.5,8.9c0,7.4,1.5,9.2,3.5,9.2
		C262.7,188.9,264.3,187.1,264.3,179.7z"/>
	<path class="st0" d="M273.3,179.7c0-9.3,3.9-13.9,9.6-13.9c5.7,0,9.6,4.7,9.6,13.9c0,9.3-3.9,14.2-9.6,14.2
		C277.2,193.9,273.3,189,273.3,179.7z M286.4,179.7c0-7.4-1.6-8.9-3.5-8.9c-1.9,0-3.5,1.5-3.5,8.9c0,7.4,1.5,9.2,3.5,9.2
		C284.8,188.9,286.4,187.1,286.4,179.7z"/>
	<path class="st0" d="M308.6,184.1c-2.2,4.8-5.7,9.6-9.5,12.6c-0.9-1.3-2.7-3.3-3.9-4.3c3.5-2.3,7-6.2,8.8-9.9L308.6,184.1z
		 M315,181v15.8h-5.7V181h-13.7v-5.3h13.7v-13.4h5.7v13.4h13.7v5.3H315z M301.4,174.5c-0.6-2.3-2.4-5.9-4.3-8.5l4.8-2.1
		c1.9,2.5,3.9,5.9,4.7,8.3L301.4,174.5z M320,182c3.7,3.5,7.9,8.3,9.6,11.9l-4.7,2.8c-1.5-3.5-5.5-8.6-9.2-12.3L320,182z
		 M327.8,166.1c-2,3.3-4.1,6.6-5.9,8.8l-4.7-2.1c1.6-2.4,3.5-6.1,4.6-9L327.8,166.1z"/>
</g>
</svg>
