<?xml version="1.0" encoding="utf-8"?>
<!-- Generator: Adobe Illustrator 25.2.3, SVG Export Plug-In . SVG Version: 6.00 Build 0)  -->
<svg version="1.1" id="圖層_1" xmlns="http://www.w3.org/2000/svg" xmlns:xlink="http://www.w3.org/1999/xlink" x="0px" y="0px"
	 viewBox="0 0 331 126" style="enable-background:new 0 0 331 126;" xml:space="preserve">
<style type="text/css">
	.st0{fill:#FFFFFF;}
	.st1{fill:url(#SVGID_1_);}
	.st2{fill:url(#SVGID_2_);}
	.st3{fill:url(#SVGID_3_);}
	.st4{fill:url(#SVGID_4_);}
	.st5{fill:url(#SVGID_5_);}
	.st6{fill:url(#SVGID_6_);}
</style>
<g>
	<g>
		<path class="st0" d="M2.9,77.4h19.2V75h6v2.4h19.6v5.7H28.2v1.3h17.9v5H28.2V91h22.3v5.6H0.3V91h21.8v-1.6H4.7v-5h17.5v-1.3H2.9
			V77.4z M45.6,97.9v19.8c0,5.1-2.6,7.6-7.7,7.6c-1.8,0-4-0.1-6.5-0.4l-1.3-6.5c2.9,0.5,5.5,0.8,7.8,0.8c0.9,0,1.4-0.7,1.5-2.2H11.8
			v8.3h-6V97.9H45.6z M11.8,105h27.7v-1.5H11.8V105z M11.8,111.8h27.7v-1.6H11.8V111.8z"/>
		<path class="st0" d="M57.4,86.5h5V75.4h6.1v11.1h4.8v6.1h-4.8v15.6c1.9-0.5,3.7-1.1,5.4-1.6l1.1,5.6c-4.8,2-10.2,3.8-16.1,5.2
			l-2.2-6.5c1.9-0.4,3.8-0.9,5.6-1.3v-17h-5v-6.1H57.4z M73.9,80.9h13.5V75h6.1v5.9h5.2c-0.8-1.1-1.7-2.1-2.8-3.1l5-3
			c1.5,1.3,2.8,2.7,3.7,4.2l-3.4,2h6.4v5.8H93.5v2.6h12.6v28.3c0,5.1-2.6,7.6-7.8,7.6h-2.6l-1.3-6.5c1.4,0.3,2.7,0.4,3.9,0.4
			c1.2,0,1.7-1,1.7-3v-2h-6.5v9.7h-6.1v-9.7h-5.8v11.1h-6.1v-36h11.9v-2.6H73.9V80.9z M81.6,98.7h5.8v-3.4h-5.8V98.7z M81.6,108.6
			h5.8v-4.1h-5.8V108.6z M93.5,95.3v3.4h6.5v-3.4H93.5z M93.5,104.4v4.1h6.5v-4.1H93.5z"/>
		<path class="st0" d="M120.3,118.6v5.2H114V82.9h5.1c0.7-2.7,1.3-5.4,1.6-8.1l6.5,1.6c-0.4,2.3-0.9,4.5-1.5,6.5h8.3v9.9
			c1.4-2.4,2.6-4.9,3.7-7.6c1.6-3.7,2.7-7.2,3.5-10.4l6.6,2c-0.5,2-1.1,4.1-1.8,6.1h15.7c0,21.3-0.7,33.7-2.1,37.2
			c-1,3.7-3.5,5.5-7.7,5.5c-2.1,0-4.2-0.3-6.4-0.9l-1.3-6.7c3.2,0.7,5.7,1.1,7.6,1.1c1.2,0,2-0.9,2.3-2.7c0.6-3.1,0.9-12.2,0.9-27.4
			h-11.4c-1.6,4-3.3,7.4-5.2,10.3l-4.6-3.4v25.8h-6.3v-3h-7.2V118.6z M120.3,98.3h7.4v-9.4h-7.4V98.3z M127.7,112.7v-8.4h-7.4v8.4
			H127.7z M146.7,96.8c1.9,3.7,3.3,7.9,4.4,12.4l-6.7,2.2c-0.8-4.6-2-8.9-3.7-12.7L146.7,96.8z"/>
		<path class="st0" d="M186.1,74.4l7.2,2.2c-1.6,2.9-3.8,5.9-6.5,9c-1.6,1.8-3.1,3.4-4.7,4.9c7.6-0.4,14.5-0.8,20.7-1.3
			c-1.5-1.7-3-3.4-4.7-5.1l5.7-3.4c4.7,4.3,8.6,8.9,11.5,13.7l-6.4,3.6c-0.7-1.3-1.5-2.5-2.3-3.8c-11.4,1.2-23.9,2.3-37.5,3.2
			l-1-6.4c2.1-0.1,4.2-0.1,6.2-0.2c2.1-2.1,4.1-4.4,5.8-6.7C182.5,80.9,184.6,77.7,186.1,74.4z M211.1,99.7v25.5h-6.3v-2.6h-26.2
			v2.6h-6.3V99.7H211.1z M178.7,116.6h26.2v-11.2h-26.2V116.6z"/>
		<path class="st0" d="M238.2,75l2.6,5c-1.8,0.5-3.7,1-5.7,1.5v6.4h5.4v5.8h-5.4v3.2c2.5,2.1,4.8,4.3,6.7,6.4l-3.6,5.3
			c-1-1.5-2-2.9-3-4.2v20.8h-5.9V108c-0.9,2.2-2,4.3-3.3,6.4l-4.4-4.1c1.8-2.5,3.5-5.5,5-9.2c1-2.4,1.8-4.8,2.3-7.3h-6.4V88h6.8
			v-5.3c-1.5,0.3-2.9,0.5-4.4,0.7l-2-5.5C228.4,77.2,233.5,76.3,238.2,75z M242.5,95.7h27.6V117h-5.3c1.1,0.5,2.1,1,3.3,1.4
			c1.8,0.7,3.5,1.3,5.3,1.7l-3,5.4c-1.9-0.7-3.8-1.5-5.6-2.5c-2.1-1.2-4.1-2.4-5.9-3.9l2.6-2.2h-9.6l2.6,2.2
			c-3.2,2.5-7,4.5-11.5,6.1l-3-5.4c3-0.7,5.8-1.7,8.4-2.9h-5.8L242.5,95.7L242.5,95.7z M241.6,77.2h11.5v-2.4h6.1v2.4h12v5h-12v1.1
			h10v5h-10v1h13.5v5.1h-31.2v-5.1H253v-1h-9.6v-5h9.6v-1.1h-11.5L241.6,77.2L241.6,77.2z M248.1,101.6h16.3v-1.3h-16.3L248.1,101.6
			L248.1,101.6z M248.1,106.8h16.3v-1.1h-16.3L248.1,106.8L248.1,106.8z M248.1,112.4h16.3V111h-16.3L248.1,112.4L248.1,112.4z"/>
		<path class="st0" d="M283.7,75.2h41.4v5.3h-17.7v1.1H329v10.7h-5.9V87h-15.7v10.9h-6.3V87h-15.5v5.3h-5.9V81.6h21.4v-1.1h-17.5
			v-5.3H283.7z M324.2,99.7v18.1h-17.4c0.1,1.1,0.4,1.6,0.9,1.6c0.4,0.2,1.1,0.3,2.3,0.3c6.1,0,9.2,0,9.2-0.1c1.2,0,2.4-0.1,3.5-0.2
			c1.2-0.1,2-1.3,2.4-3.5l5.4,2.4c-0.7,2.9-1.7,4.9-3.1,5.8c-0.9,0.4-2.3,0.7-4.2,0.9c-4.4,0.2-8.8,0.3-13.2,0.3h-2.1
			c-1.5,0-2.7-0.2-3.7-0.5c-2.6-0.1-3.9-2-3.9-5.8v-1.1H289v2.4h-6V99.7H324.2z M286.5,88.3h13.3v4.6h-13.3V88.3z M286.5,93.9h13.3
			v4.6h-13.3V93.9z M289.1,106.4h11.3v-1.5h-11.3V106.4z M289.1,112.4h11.3V111h-11.3V112.4z M306.8,104.9v1.5h11.3v-1.5H306.8z
			 M306.8,111v1.5h11.3V111H306.8z M308.3,88.3H322v4.6h-13.7V88.3z M308.3,93.9H322v4.6h-13.7V93.9z"/>
	</g>
	<g>
		<g>
			
				<linearGradient id="SVGID_1_" gradientUnits="userSpaceOnUse" x1="133.6918" y1="62.0721" x2="185.6308" y2="123.9705" gradientTransform="matrix(1 0 0 -1 0 125.7323)">
				<stop  offset="0" style="stop-color:#A67A22"/>
				<stop  offset="0.4916" style="stop-color:#F8E69C"/>
				<stop  offset="0.7643" style="stop-color:#D5B761"/>
			</linearGradient>
			<path class="st1" d="M156.8,1.3h8.2v3.9h24.9v6.9h-57.8V5.2h24.7L156.8,1.3L156.8,1.3z M189.2,31.1v23.2c0,5.6-3.2,8.4-9.5,8.4
				c-0.8,0-1.7-0.1-2.6-0.3l-1.6-7.4c1.6,0.5,3,0.7,4.3,0.7c1.2,0,1.8-1.1,1.8-3.4V37.9h-41.3v24.7h-7.7V31.1H189.2z M139.9,13.7
				h41.5v15.6h-41.5V13.7z M175,39.8v16h-22v2.6h-7V39.8H175z M147.3,22.9h26.9V20h-26.9V22.9z M153,49.4h14.8V46H153V49.4z"/>
			
				<linearGradient id="SVGID_2_" gradientUnits="userSpaceOnUse" x1="204.2038" y1="60.8923" x2="253.6902" y2="119.868" gradientTransform="matrix(1 0 0 -1 0 125.7323)">
				<stop  offset="0" style="stop-color:#A67A22"/>
				<stop  offset="0.4916" style="stop-color:#F8E69C"/>
				<stop  offset="0.7643" style="stop-color:#D5B761"/>
			</linearGradient>
			<path class="st2" d="M207,1.8h7.6v10.3h6.8v7.3h-6.8v10.9c1.9-0.5,3.7-1.1,5.5-1.6l1.3,7c-2.2,0.9-4.5,1.8-6.8,2.5v14.1
				c0,3.9-0.5,6.6-1.6,8c-1.3,1.6-3.5,2.4-6.8,2.4c-2,0-3.8-0.3-5.5-0.8l-1.4-7.9c1.9,0.7,3.9,1.1,5.8,1.1c0.8,0,1.3-0.3,1.5-0.9
				c0.3-0.8,0.4-2,0.4-3.6v-9.9c-2.1,0.6-4.3,1.2-6.6,1.8l-2.6-7.9c3.2-0.7,6.2-1.4,9.2-2.1v-13h-7.2v-7.3h7.2L207,1.8L207,1.8z
				 M223,29h32.1v5.5c-2.6,5.9-5.7,10.7-9.4,14.5c3.9,2.5,8.8,4.5,14.4,6.1l-4,7.6c-6.3-2-11.8-4.8-16.5-8.5
				c-5.5,3.9-11.8,6.7-18.9,8.5l-3.8-7.2c6.7-1.4,12.3-3.7,16.8-6.7c-3.2-3.6-5.9-7.8-8.1-12.5H223V29z M229.1,2.6h20.7v12.7
				c0,1.8,0.2,2.9,0.7,3.2c0.3,0.1,0.6,0.1,1,0.1c0.1,0,0.3,0,0.5-0.1c0.1-0.1,0.2-0.2,0.3-0.5c0.2-0.5,0.3-2,0.3-4.7l7.6,3.8
				c-0.2,4.1-1.1,6.7-2.5,7.7c-0.7,0.5-1.5,0.9-2.5,1.1c-1.3,0.1-2.5,0.2-3.7,0.2c-3.3,0-5.3-0.4-6.1-1.2c-1.9-0.4-2.9-2.9-2.9-7.5
				V10h-9.7v2.2c-0.2,5-0.8,8.3-1.8,10.1c-0.9,2.1-2.4,4.1-4.5,6.2l-6.1-5.5c1.7-1.4,3-2.8,3.9-4.3c0.9-1.8,1.4-4,1.4-6.5V2.6H229.1
				z M233.6,36.3c1.5,2.9,3.5,5.5,5.9,7.8c2.3-2.3,4.2-4.9,5.7-7.8H233.6z"/>
			
				<linearGradient id="SVGID_3_" gradientUnits="userSpaceOnUse" x1="273.3492" y1="66.06" x2="321.8951" y2="123.9146" gradientTransform="matrix(1 0 0 -1 0 125.7323)">
				<stop  offset="0" style="stop-color:#A67A22"/>
				<stop  offset="0.4916" style="stop-color:#F8E69C"/>
				<stop  offset="0.7643" style="stop-color:#D5B761"/>
			</linearGradient>
			<path class="st3" d="M267,7.9h9.7V2.1h7.4v5.8h10v6.9h-10v4.7h11.3v6.9H292c-0.7,2.3-1.4,4.5-2.3,6.5h4.3v6.9h-10v4.1h11.3v6.9
				H284v11.6h-7.4V50.8h-11.1v-6.9h11.1v-4.1H267v-6.9h4c-0.5-1.9-1.2-3.7-1.9-5.3l2.8-1.3h-6.5v-6.9h11.3v-4.7H267V7.9z
				 M275.2,32.9h7c0.9-2.1,1.6-4.3,2.2-6.5H276c0.9,1.7,1.6,3.4,2.3,5.3L275.2,32.9z M300.2,3.5h23.7v13.4c0,5.4-2.7,8.1-8,8.1H311
				l-1.6-7.6c1.8,0.4,3.2,0.5,4.5,0.5c1.4,0,2-0.8,2-2.4v-5h-12v16.1h21.3v5.3c-1.6,7.6-3.6,13.5-6.1,17.8c1.9,2.4,4.2,4.5,6.8,6.4
				l-5.3,6.6c-2.2-1.8-4.3-3.9-6.1-6.3c-2.4,2.7-5,4.8-7.8,6.3l-2.9-5.6v5.6h-7.4V3.5H300.2z M303.9,55.1c2.4-1.4,4.5-3.1,6.3-5.3
				c-0.1-0.2-0.2-0.4-0.3-0.5c-2.6-4.7-4.4-10-5.5-15.9h-0.5V55.1z M311.4,33.4c0.7,3.4,1.7,6.4,3.1,9.1c1.1-2.7,2.1-5.8,2.9-9.1
				H311.4z"/>
		</g>
		<g>
			<g>
				
					<linearGradient id="SVGID_4_" gradientUnits="userSpaceOnUse" x1="-6.0285" y1="75.6357" x2="28.0273" y2="116.2219" gradientTransform="matrix(1 0 0 -1 0 125.7323)">
					<stop  offset="0" style="stop-color:#A67A22"/>
					<stop  offset="0.4916" style="stop-color:#F8E69C"/>
					<stop  offset="0.7643" style="stop-color:#D5B761"/>
				</linearGradient>
				<path class="st4" d="M7.8,11.9H0.3V1.6h18.3v60.1h-5.4H7.8V11.9z"/>
				
					<linearGradient id="SVGID_5_" gradientUnits="userSpaceOnUse" x1="30.6981" y1="64.8051" x2="71.9522" y2="113.9697" gradientTransform="matrix(1 0 0 -1 0 125.7323)">
					<stop  offset="0" style="stop-color:#A67A22"/>
					<stop  offset="0.4916" style="stop-color:#F8E69C"/>
					<stop  offset="0.7643" style="stop-color:#D5B761"/>
				</linearGradient>
				<path class="st5" d="M70.3,20.8c0,4.7-1.8,9.1-5.3,13.2c-2.8,3.3-8.9,9-18.4,17.4h23.7v10.2H31.5v-5.1v-5.1
					c12.9-11.8,20.8-19.3,23.8-22.6s4.4-6.4,4.4-9.4c0-2.6-0.8-4.7-2.5-6.3s-3.9-2.5-6.5-2.5c-2.8,0-5,1-6.6,3.1s-2.4,4.9-2.4,8.5
					H30.8c0-6.6,1.9-11.9,5.6-15.9s8.7-5.9,14.9-5.9c5.6,0,10.1,1.9,13.7,5.7C68.5,9.9,70.3,14.8,70.3,20.8z"/>
			</g>
			
				<linearGradient id="SVGID_6_" gradientUnits="userSpaceOnUse" x1="83.8321" y1="66.9422" x2="113.2187" y2="101.9637" gradientTransform="matrix(1 0 0 -1 0 125.7323)">
				<stop  offset="0" style="stop-color:#A67A22"/>
				<stop  offset="0.4916" style="stop-color:#F8E69C"/>
				<stop  offset="0.7643" style="stop-color:#D5B761"/>
			</linearGradient>
			<path class="st6" d="M79.5,37.1c-1.9-1.9-2.8-4.3-2.8-7.2c0-2.9,0.9-5.3,2.8-7.2c1.9-1.9,4.3-2.8,7.2-2.8c2.9,0,5.3,0.9,7.2,2.8
				c1.9,1.9,2.8,4.3,2.8,7.2s-0.9,5.3-2.8,7.2s-4.3,2.8-7.2,2.8C83.8,39.9,81.4,39,79.5,37.1z M83,26c-1,1-1.4,2.3-1.4,3.9
				s0.5,2.9,1.4,3.9s2.2,1.5,3.7,1.5s2.7-0.5,3.7-1.5s1.5-2.3,1.5-3.9S91.4,27,90.4,26s-2.2-1.5-3.7-1.5C85.2,24.4,83.9,25,83,26z
				 M87.3,61.7l17-40.8h5.5l-17,40.8H87.3z M103.2,59.8c-1.9-1.9-2.8-4.3-2.8-7.2s0.9-5.3,2.8-7.2s4.3-2.8,7.2-2.8
				c2.9,0,5.3,0.9,7.2,2.8c1.9,1.9,2.8,4.3,2.8,7.2s-0.9,5.3-2.8,7.2s-4.3,2.8-7.2,2.8C107.5,62.7,105.1,61.7,103.2,59.8z
				 M106.4,48.4c-1,1.1-1.5,2.5-1.5,4.2s0.5,3.1,1.5,4.2c1,1.1,2.3,1.6,3.9,1.6s2.9-0.5,4-1.6c1-1.1,1.6-2.5,1.6-4.2
				s-0.5-3.1-1.6-4.2c-1-1.1-2.4-1.6-4-1.6C108.8,46.8,107.5,47.4,106.4,48.4z"/>
		</g>
	</g>
</g>
</svg>
