<?xml version="1.0" encoding="utf-8"?>
<!-- Generator: Adobe Illustrator 25.2.3, SVG Export Plug-In . SVG Version: 6.00 Build 0)  -->
<svg version="1.1" id="圖層_1" xmlns="http://www.w3.org/2000/svg" xmlns:xlink="http://www.w3.org/1999/xlink" x="0px" y="0px"
	 viewBox="0 0 224 78" style="enable-background:new 0 0 224 78;" xml:space="preserve">
<style type="text/css">
	.st0{fill:#FFFFFF;}
</style>
<g>
	<g>
		<g>
			<path class="st0" d="M72.1,27.8c0.2-0.1,0.4-0.3,0.6-0.4c1.6-0.8,3-2.3,4.2-3.5c0.8-0.9,1.8-2.1,2.8-3.4c0.5-0.7,1-1.3,1.4-1.8
				l0.3-0.4l-6.6-2.5l-3,9.4c-0.2,0.5-0.3,1-0.4,1.4c-0.1,0.4-0.2,0.8-0.4,1.2H60.4c0.8-1,1.4-2.6,1.8-5l0-0.1l0,0
				c-2.2-2.8-4.7-5.3-7.3-7.4h33.4v-3.7H68.2c1-1.1,1.8-2.2,2.3-3.3l0-0.1l0-0.1C69.7,7.2,67.2,5.5,63,3l0,0h-0.5l0,0.2
				c1.4,4.5,2.5,7.4,3.5,8.6H43.5v3.7h10.1c1.5,6.1,3.1,10.3,4.7,12.5H39.9v3.7h51.3v-3.7H72C72,27.9,72.1,27.8,72.1,27.8z"/>
			<path class="st0" d="M55,35.7h-6.6v35h34.9v-35h-6.6H55z M55,49.4V39h21.8v12.3H55v-0.6V49.4z M55,67.4V56.9V55h21.8v12.3H55z"/>
		</g>
		<g>
			<path class="st0" d="M103.9,33.6c0,2.2-0.5,3.5-1.4,4v1.6c4.1-1.3,6.2-3.2,6.2-5.9V17.8h-4.8V33.6z"/>
			<path class="st0" d="M158.4,52.9v-0.4v-0.4h-1.6l-0.1,0.7c-1.2,8.7-1.2,12.9-5.5,13.1l-4.4,0c-1.9,0-1.8-1.1-1.8-3V41.7h6.6v-1.3
				v-2.1V22.8c1.3,0.6,2.8,1.1,4.4,1.4l1.4,0.3l-0.9-1.6c-0.2-0.6-0.3-1-0.2-1.3c0-1,1.4-1.9,1.4-1.9c-1-0.3-2.2-0.6-3.5-1.2
				c-2.5-1.1-4.7-2.6-5.8-3.6c-3.1-2.6-3.2-6.6-3.3-8.6v-1h-2.9l0,3.8c0.1,3.8,1.2,7,3.5,9.6h-15.3c4.2-3,6.1-6.6,6.1-10.6V6.3h0
				V5.2h-6.2v1.1h0V8c0.1,5.5-2.4,9.7-7.7,12.6c-1.3-0.9-3.4-2.4-6.1-4.4V5.4h-5.6v66h5.6v-52c2.2,4.1,3.9,6.7,5,7.8
				c0.6-0.7,1.1-2.3,1.5-4.7c0.9-0.4,1.8-0.7,2.6-1.1v0.6v16.4v2.1v1.3h5.6v3.6c0,6.8-2,12.7-6,18.2c0,0-0.9,1.4-1.1,1.7
				c-1.6,2.1-3.9,4.9-4.7,5.8l-0.3,0.3h2.6l0.2-0.2c9.5-9.2,14.6-14.6,15.5-26.2l0-3.1h2.7v24.3c0,3.3,1.3,5.1,3.8,5.3l9.4,0
				c0.1,0,0.6,0,0.7,0c0.9-0.1,1.3-0.2,2-0.8c1.6-1.3,2.2-3.1,2.5-8.1l0-0.8c0-0.5,0-1.1,0-1.7V52.9z M132.1,21.9H145v16.4h-12.9
				V21.9z"/>
		</g>
		<g>
			<path class="st0" d="M196.4,62.7c-0.2,1.5-0.6,2.5-1.2,3.1v2.8c3.9-3.4,5.4-7.1,5.4-17.2h-4.2C196.6,55.7,196.6,61.1,196.4,62.7z
				"/>
			<path class="st0" d="M197.3,18.7v-2.8H179h-0.2v-3.6h40.9V9.3h-21l1.8-3.4l-0.1-0.1c-2.2-1.1-4.8-2.2-7.8-3.3l-0.1,0l-0.8,0.4
				l0.1,0.1c1.4,2.5,2.6,4.7,3.8,6.4h-3h-13.9h-4h-1.4v3.1v22.8c0,12.4-0.3,20.4-0.9,24c-0.2,3.7-1.2,7.8-3,12.3h1.8
				c2.8-6.5,4.5-13,6.2-20.1c0,0,0,0,0,0c0.1-0.7,0.3-1.4,0.4-2.1h3v5h-2.7v2.5h2.7v6c-2,0.4-3.7,0.3-5.1-0.3c1.6,2,1.7,4.2,0.3,6.4
				c3.8-1.3,7.7-3.8,11.7-7.4c0.5-0.4,0.9-0.8,1.4-1.3v1.7v10.3h4.8V20.3v-1.6h0.6H197.3z M189.3,40.3H186v-3V36v-1h3.3v0.8V40.3z
				 M189.3,29.9v2.2v0.7H186v-0.2V27h3.3V29.9z M179,18.7h0.3h0.9h0.9v21.6h-2.5h0c0.1-3,0.1-5.2,0.1-5.2V18.7H179z M189.3,57.2v1.4
				c-0.5,0.4-0.9,0.8-1.4,1.2c-0.9,0.7-1.7,1.2-2.5,1.6c0,0,0,0,0,0v-4.6h2.7v-2.5h-2.7v-5h3v-2.5h-10.2c0.1-1.2,0.2-2.4,0.3-3.6
				h0.2h0.2h0.7h3.8h2.6h3.1v12.5V57.2z M189.3,22.2v0.7v1.6H186v-2.7v-1.1v-1.9h2.8h0.5v1.6V22.2z"/>
			<polygon class="st0" points="205.1,46.6 205.4,46.6 208.5,46.6 219.4,46.6 219.4,43.8 195,43.8 195,46.6 202.8,46.6 			"/>
			<path class="st0" d="M219.7,21.8v-2.5h-9.9c0-0.2,0.1-0.6,0.3-1.4c0.4-1.7,0.6-3,0.6-3.9h-6v5.3h-9.3v2.5h9
				c-0.1,1.3-0.3,2.5-0.6,3.5h-0.6h-1.8h-4.8v2.5v11v2.5h21.5v-2.5v-11v-2.5h-4.8h-1.8h-3.3h-1.8h-0.2c0.7-0.8,1.5-2,2.3-3.5H219.7z
				 M201.5,38.8v-11h1.8v11H201.5z M213.5,27.8v11h-1.8v-11H213.5z M208.4,27.8v11h-1.8v-11H208.4z"/>
			<path class="st0" d="M216.2,52.9C216.2,52.9,216.2,53,216.2,52.9l-0.9-1.4l-0.3,0.3c1.4,6.7,2.9,11.6,4.5,14.8
				c0.6-1.5,1.4-3.1,2.4-4.7C221,60.7,219.1,57.8,216.2,52.9z"/>
			<path class="st0" d="M214.8,58.8h-0.3l-0.1,0.3c-0.5,4.8-1.3,6.3-1.3,6.3c-0.5,1.6-1.2,1.3-2.2,1.4h-2.8
				c-1.1-0.1-1.5-0.7-1.5-1.7v-7.4v-3.1v-5c0.9,2.9,2.5,7.4,4.8,10.7c0.6-0.9,1.4-2.6,2.4-5c-1.5-1.7-4.2-4.6-6.4-7
				c-0.4-0.4-0.8-0.9-1.2-1.3h-0.3c0,0,0.3,1.1,0.8,2.7H205h-3.2v8.2v9.6c0,2.3,1.1,3.9,3.9,3.9h6.1c1.9-0.2,3.3-0.9,3.5-2.2l0.1-1
				c0.2-2.3-0.1-9.3-0.1-9.3H214.8z"/>
		</g>
		<g>
			<rect x="10.9" y="19.2" class="st0" width="9.5" height="1.6"/>
			<path class="st0" d="M12.7,68.7c0,0.5-0.2,1-0.5,1.3l-0.1,0v1.6l0.3-0.3c1.8-1.6,2.7-3.4,2.7-5.6v-0.1h-2.4V68.7z"/>
			<path class="st0" d="M16.4,66c-0.1-0.1-0.1-0.3-0.1-0.4v-0.1h-0.5v0.1c0,1.8,0.2,3.5,0.6,5l0.1,0.3l0.2-0.2
				c0.6-0.5,1.1-1,1.4-1.6l0-0.1l0-0.1C17.7,68.4,17.2,67.4,16.4,66z"/>
			<path class="st0" d="M19,70.3l0.2-0.2c0.4-0.4,0.8-1,1.2-1.7l0.1-0.2h-0.3c0,0-0.1,0-0.3-0.3c-0.8-1.1-1.3-1.9-1.6-2.4L18,64.8
				v0.6c0,1.2,0.3,2.7,0.9,4.5L19,70.3z"/>
			<path class="st0" d="M9.8,28.2H9.4l0.2,0.4h0c0,0,0,0,0,0l0,0l0,0c0.1,0.1,0.1,0.3,0.2,0.4c0.7,1.6,1.5,3.2,2.4,4.8l0.1,0.2
				l0.2-0.1c0.7-0.5,1.4-1.2,2-2.2l0-0.1l-0.1-0.1c-1.1-0.8-2.2-1.7-3.3-2.5c-0.2-0.1-0.4-0.3-0.6-0.4l0,0L9.8,28.2z"/>
			<path class="st0" d="M11.2,9.7v0.6v1.2h-1.1H9.2H7.8H5.9v12.2h3.3h7.7h0.9h4.1h3.3V11.5h-3.3h-1.1H19v-1.2V9.7h3.5h6V8.2h-7.2
				h-1.4h-2.1h-2.6H14c0.1-0.2,0.2-0.5,0.3-1.1c0.1-0.4,0.2-0.5,0.3-0.6l0.2-0.2l-0.2-0.1C13.3,5.8,11.7,5.3,9.9,5l-0.2,0v0.2
				c0,0.1,0,0.3,1.4,1.7C11.7,7.6,12,8,12.2,8.2H2.9v1.6h4.8H11.2z M9.2,13.1h1.3h0.7l0,0.7c0,1.9-0.6,3.3-1.6,4.2
				c-0.1,0.1-0.2,0.2-0.4,0.3l0,0v-0.5V13.1z M21.9,18.5v3.7H9.2v-2.7v-0.2c0.3-0.1,0.9-0.4,0.9-0.4l0,0c2.4-1.5,3.8-3.2,4.1-5.1
				l0-0.7H16v0.7V16l0,0c0.1,1.2,0.9,1.8,2.2,1.9h2.7h0.7h0.2V18.5z M21.9,13.1v2.2v0.5h-0.2h-0.7h-2v-1.7v-0.3v-0.7h1.8H21.9z
				 M16,9.7v0.6v1.2h-1.7v-1.2V9.7H16z"/>
			<path class="st0" d="M20.9,6.8c0.8-0.4,1.5-0.8,2.2-1.2c0,0,0.1,0,0.1-0.1l-3.1-1.3l-2,2.7c-0.3,0.3-0.5,0.6-0.7,0.9
				c0.3,0,0.7,0,1.1-0.1C19.3,7.6,20.1,7.2,20.9,6.8z"/>
			<path class="st0" d="M20.7,45.8c0.8-0.2,2.1-1.2,2.8-1.6c0.7-0.5,1.1-0.8,1.8-1.3c0,0,0.4-0.3,0.4-0.3l-3.2-1.1l-1.8,2.8
				c-0.2,0.3-0.9,1.3-1.1,1.6C20,46,20.3,45.9,20.7,45.8z"/>
			<path class="st0" d="M22,52.1L22,52.1c-0.1-0.2-0.2-0.3-0.3-0.4h4.8v-1.4h-8.4c0.4-1,0.7-1.7,0.8-2h6.9v-1.4h-2.6h-1.2h-2.1h-0.2
				h-0.4c0.2-1,0.5-3,0.9-6l0-0.2h-3.5l0,0.1c-0.1,2.3-0.2,4.4-0.3,6h-1.3c0.4-0.5,0.8-1.3,1.2-2.2l0-0.1l-0.1-0.1
				c-0.5-0.3-1.4-1-2.7-1.9c-0.5-0.2-0.9-0.5-1.1-0.9l-0.1-0.1l-0.4,0.3l0,0.1c0.7,1.5,1.5,3.2,2.4,4.9h-2.6v1.4h4.4
				c-0.2,1-0.5,1.7-0.6,2h-3.3h-0.4h-0.4v-0.8v-8.3H3.2v17c0,4.8-0.1,8.1-0.4,9.7c-0.2,1.3-0.7,2.8-1.6,4.7L1,72.8h1.4l0-0.1
				C4.4,69,5.6,65.4,6,62l0,0c0,0,0.2-0.5,0.2-3.1h2.2l0,10.4c0,0.6-0.3,1.4-3.2,2.6L5.1,72l0.3,0.5c0.7-0.1,0.8-0.1,1.3-0.2
				c0.4-0.1,0.8-0.2,0.8-0.2c0.6-0.2,1.1-0.4,1.6-0.8c0.5-0.3,1-0.6,1.4-1c0.4-0.4,0.9-0.9,0.9-1.5v-9.2v-1.4l0.6-0.5l0.2-0.2
				l0.4-0.4v7.9h2.9v-0.6h4.7l0,0.5c0.1,1.6,0.4,3.1,0.9,4.5l0.1,0.4l0.2-0.3c0.1-0.2,0.2-0.3,0.4-0.5c0.5-0.6,0.7-0.8,0.8-0.8l0,0
				v1.4c0,0.9-1.4,1.6-4,2.3l-0.2,0l0.3,0.7c0.9,0,1.4-0.1,2.3-0.2c1.5-0.3,2.9-0.7,3.8-1.8c0.4-0.4,0.6-0.9,0.6-1.5V62h-2.9v1h-2.5
				v-1.6h4v-1.6h-4v-1.2h2h0.4h1.6v-0.4v-0.4v-0.1l0.1,0.1v0c0.5,0.5,1,0.9,1.7,1.2l0.4,0.2l-0.1-0.3c-0.6-1.5-0.3-2.8,0.9-4.1
				l0.2-0.2l-0.3,0C24.6,54.2,22.9,53.4,22,52.1z M6.2,49.7v-7h2.2l0,7.1H6.2V49.7z M6.2,57.4c0-1.5,0-3.4,0-5.9h2.1l0,5.9H6.2z
				 M12.3,55.8c-0.3,0.3-0.5,0.6-0.8,1v-1.1v-2.1v-1.8h0.4h0.4H15C14.4,53,13.5,54.4,12.3,55.8z M16.7,52.6c0.3-0.3,0.5-0.6,0.7-0.8
				h0.2h2.8h0.1c0,0,0,0.1,0.1,0.3l0,0l0.1,0.2c0.2,0.4,0.5,1.2,0.8,1.9h-0.9h-2.2h-3C15.8,53.8,16.2,53.3,16.7,52.6z M17.4,63h-1.9
				v-1.6h1.9V63z M17.4,59.8h-1.9v-1.2h1.9V59.8z M17.4,57h-1.9v-1.4h1.9V57z M22.8,64.6V68c-0.9-1.3-1.6-2.3-2.2-3l-0.3-0.4H22.8z
				 M23.6,57h-0.9h-0.4H22h-1.7v-1.4h1.4h0.2h0.6l0,0c0.1,0.2,0.3,0.4,0.4,0.5l0,0c0.2,0.2,0.4,0.5,0.6,0.7c0.1,0,0.1,0.1,0.1,0.1
				H23.6z"/>
			<path class="st0" d="M22.2,25.1v-0.9h-3.3V26H2.3v1.6h5.4h1.8h0.9h1.1h7.5l0,6.1c0.1,1-1.6,2-5.1,2.6l-0.2,0l0.2,0.6
				c0.9,0,1.8,0,2.8-0.1c0.8-0.1,1.5-0.2,2.3-0.4c1.1-0.3,2.2-0.7,2.9-1.5c0.4-0.5,0.5-1,0.5-1.6v-5.6h6.5V26h-6.5
				C22.2,26,22.2,25.1,22.2,25.1z"/>
		</g>
	</g>
</g>
</svg>
